<svg xmlns="http://www.w3.org/2000/svg" viewBox="0 0 24 24" width="24" height="24" aria-hidden="true">
  <path fill="white" fill-rule="evenodd" clip-rule="evenodd" d="M15 9C15 10.6569 13.6569 12 12 12C10.3431 12 9 10.6569 9 9C9 7.34315 10.3431 6 12 6C13.6569 6 15 7.34315 15 9ZM14 9C14 10.1046 13.1046 11 12 11C10.8954 11 10 10.1046 10 9C10 7.89543 10.8954 7 12 7C13.1046 7 14 7.89543 14 9Z"/>
  <path fill="white" d="M18 13C19.1046 13 20 12.1046 20 11C20 9.89543 19.1046 9 18 9C16.8954 9 16 9.89543 16 11C16 12.1046 16.8954 13 18 13Z"/>
  <path fill="white" fill-rule="evenodd" clip-rule="evenodd" d="M16.899 17C16.8353 16.6881 16.7418 16.3821 16.6194 16.0866C16.3681 15.48 15.9998 14.9288 15.5355 14.4645C15.0712 14.0002 14.52 13.6319 13.9134 13.3806C13.3068 13.1293 12.6566 13 12 13C11.3434 13 10.6932 13.1293 10.0866 13.3806C9.47995 13.6319 8.92876 14.0002 8.46447 14.4645C8.00017 14.9288 7.63188 15.48 7.3806 16.0866C7.25818 16.3821 7.1647 16.6881 7.10102 17C7.03401 17.3283 7 17.6633 7 18H17C17 17.6633 16.966 17.3283 16.899 17ZM15.873 17C15.8264 16.8196 15.7671 16.6422 15.6955 16.4693C15.4945 15.984 15.1999 15.543 14.8284 15.1716C14.457 14.8001 14.016 14.5055 13.5307 14.3045C13.0454 14.1035 12.5253 14 12 14C11.4747 14 10.9546 14.1035 10.4693 14.3045C9.98396 14.5055 9.54301 14.8001 9.17157 15.1716C8.80014 15.543 8.5055 15.984 8.30448 16.4693C8.23285 16.6422 8.17361 16.8196 8.12702 17H15.873Z"/>
  <path fill="white" d="M6.25 14.0078C6.16701 14.0026 6.08364 14 6 14C4.93913 14 3.92172 14.4214 3.17157 15.1716C2.42143 15.9217 2 16.9391 2 18H5C5 17.0807 5.18106 16.1705 5.53284 15.3212C5.72474 14.8579 5.96539 14.4178 6.25 14.0078Z"/>
  <path fill="white" d="M19 18H22C22 16.9391 21.5786 15.9217 20.8284 15.1716C20.0783 14.4214 19.0609 14 18 14C17.9164 14 17.833 14.0026 17.75 14.0078C18.0346 14.4178 18.2753 14.8579 18.4672 15.3212C18.8189 16.1705 19 17.0807 19 18Z"/>
  <path fill="white" d="M8 11C8 12.1046 7.10457 13 6 13C4.89543 13 4 12.1046 4 11C4 9.89543 4.89543 9 6 9C7.10457 9 8 9.89543 8 11Z"/>
</svg>