<svg width="18" height="18" viewBox="0 0 512 512" xmlns="http://www.w3.org/2000/svg">
  <g fill="white">
    <!-- Wand body -->
    <rect transform="rotate(45 256 256)" x="190" y="140" width="132" height="400"/>
    <!-- Wand cutout -->
    <rect transform="rotate(45 256 256)" x="235" y="185" width="50" height="340" fill="#262626"/>
    
    <!-- Top-left sparkle -->
    <polygon points="144,64 168,112 216,136 168,160 144,208 120,160 72,136 120,112"/>
    
    <!-- Top-right sparkle -->
    <polygon points="400,64 424,112 472,136 424,160 400,208 376,160 328,136 376,112"/>
    
    <!-- Bottom-right sparkle -->
    <polygon points="400,304 424,352 472,376 424,400 400,448 376,400 328,376 376,352"/>
  </g>
</svg>


