
<svg width="21" height="21" viewBox="0 0 21 21" fill="none" xmlns="http://www.w3.org/2000/svg">
<path d="M14.1701 8.46C14.1701 9.55 13.5001 10.13 12.8601 10.7C12.3301 11.17 11.8301 11.6 11.7001 12.3L11.6601 12.5H9.91006L9.94006 12.22C10.0801 11.05 10.7401 10.46 11.4101 9.95C11.9301 9.55 12.4201 9.18 12.4201 8.46C12.4201 7.95 12.1901 7.49 11.7901 7.17C11.3901 6.86 10.8701 6.75 10.3701 6.88C9.78006 7.03 9.32006 7.55 9.18006 8.22L9.13006 8.5H7.38006L7.44006 8.08C7.64006 6.68 8.59006 5.55 9.86006 5.21C10.9101 4.92 12.0001 5.13 12.8401 5.78C13.6901 6.42 14.1701 7.4 14.1701 8.46ZM10.8101 16.5C11.3601 16.5 11.8101 16.05 11.8101 15.5C11.8101 14.95 11.3601 14.5 10.8101 14.5C10.2601 14.5 9.81006 14.95 9.81006 15.5C9.81006 16.05 10.2601 16.5 10.8101 16.5ZM10.8101 1.5C5.85006 1.5 1.81006 5.54 1.81006 10.5C1.81006 15.46 5.85006 19.5 10.8101 19.5C15.7701 19.5 19.8101 15.46 19.8101 10.5C19.8101 5.54 15.7701 1.5 10.8101 1.5ZM10.8101 0.5C16.3301 0.5 20.8101 4.98 20.8101 10.5C20.8101 16.02 16.3301 20.5 10.8101 20.5C5.29006 20.5 0.810059 16.02 0.810059 10.5C0.810059 4.98 5.29006 0.5 10.8101 0.5Z" fill="white"/>
</svg>
