<svg width="97" height="25" viewBox="0 0 97 25" fill="none" xmlns="http://www.w3.org/2000/svg">
<path d="M43.0901 23.4559C46.7621 23.4559 48.2261 21.9679 48.2261 18.2359C48.2261 15.2119 46.7381 13.9999 44.3021 11.9119C42.1781 10.1119 41.2541 9.41592 41.2541 7.29192C41.2541 5.64792 41.8781 4.99992 43.1981 4.99992C44.6141 4.99992 45.0941 5.95992 44.9861 8.77992L47.8541 8.59992C48.3581 4.59192 46.9181 2.69592 43.3421 2.69592C39.9341 2.69592 38.2301 4.21992 38.2301 7.47192C38.2301 10.6279 39.2741 11.7919 41.9981 13.9399C43.7981 15.3679 45.1781 16.5079 45.1781 18.7759C45.1781 20.5639 44.5301 21.2239 43.2101 21.2239C41.7581 21.2239 41.2061 20.2279 41.3141 17.6479L38.4461 17.6959C37.8581 21.5599 39.3101 23.4559 43.0901 23.4559Z" fill="white"/>
<path d="M53.0517 23.4079C53.8917 23.4079 55.1277 23.2639 56.1477 22.8079L55.7637 20.8759C55.3317 21.0079 54.8997 21.0679 54.4197 21.0679C53.5797 21.0679 53.4357 20.5159 53.4357 19.3039V10.7239H55.8597V8.34792H53.2917V4.25592H51.0117L50.5677 8.34792H49.0317V10.7239H50.4237V19.7119C50.4237 21.9799 50.6517 23.4079 53.0517 23.4079Z" fill="white"/>
<path d="M60.4286 23.4079C62.1807 23.4079 63.2726 22.6759 64.1726 21.3559H64.3046L64.4366 23.1799H66.8246V8.34793H63.6566V20.2639C63.3206 20.8519 62.5406 21.2839 61.8086 21.2839C60.8846 21.2839 60.5966 20.5519 60.5966 19.3279V8.34793H57.4406V19.4719C57.4406 21.8839 58.1366 23.4079 60.4286 23.4079Z" fill="white"/>
<path d="M75.7544 6.15192C75.7544 7.11192 75.8024 8.14392 75.8984 9.47592H75.7664C75.0944 8.53992 74.0024 8.05992 72.5744 8.05992C69.8384 8.05992 69.1064 10.6999 69.1064 14.4439V16.7479C69.1064 21.0679 69.8024 23.4199 72.5264 23.4199C74.2664 23.4199 75.3224 22.5079 75.9944 21.2719H76.0184L76.4264 23.1799H78.8384V2.22792H75.7544V6.15192ZM75.7544 19.6639C75.5024 20.5999 74.6744 21.2359 73.8944 21.2239C72.7424 21.1879 72.3224 19.9279 72.3224 16.8799V14.6599C72.3224 11.5639 72.7304 10.1599 74.0864 10.1599C74.7224 10.1599 75.3944 10.6159 75.7544 11.2519V19.6639Z" fill="white"/>
<path d="M82.9021 6.46393C83.9821 6.46393 84.4861 6.10393 84.4861 4.61593C84.4861 3.22393 83.9461 2.79193 82.9021 2.79193C81.8461 2.79193 81.3301 3.17593 81.3301 4.61593C81.3301 6.10393 81.8221 6.46393 82.9021 6.46393ZM81.4381 23.1799H84.4741V8.34793H81.4381V23.1799Z" fill="white"/>
<path d="M91.4891 8.05992C87.8531 8.05992 86.6051 10.1599 86.6051 14.6839V16.8319C86.6051 20.8879 87.3851 23.4319 91.4171 23.4319C95.3891 23.4319 96.2411 21.0079 96.2411 16.8319V14.6839C96.2411 10.6399 95.4251 8.05992 91.4891 8.05992ZM93.0371 18.1639C93.0371 20.1319 92.6891 21.3679 91.4291 21.3679C90.1931 21.3679 89.8451 20.1199 89.8451 18.1639V13.3159C89.8451 11.6359 90.0851 10.1359 91.4291 10.1359C92.8451 10.1359 93.0371 11.7199 93.0371 13.3159V18.1639Z" fill="white"/>
<path d="M17.3818 24.5C17.3818 24.5 28.2834 24.5 30.9875 23.78C32.51 23.372 33.6551 22.196 34.057 20.744C34.8 18.08 34.8 12.476 34.8 12.476C34.8 12.476 34.8 6.908 34.057 4.268C33.6551 2.78 32.51 1.628 30.9875 1.232C28.2834 0.5 17.3818 0.5 17.3818 0.5C17.3818 0.5 6.50444 0.5 3.81253 1.232C2.31432 1.628 1.14498 2.78 0.718656 4.268C0 6.908 0 12.476 0 12.476C0 12.476 0 18.08 0.718656 20.744C1.14498 22.196 2.31432 23.372 3.81253 23.78C6.50444 24.5 17.3818 24.5 17.3818 24.5Z" fill="#FF0033"/>
<path d="M22.8 12.5L13.8 7.39999V17.6L22.8 12.5Z" fill="white"/>
</svg>
