<svg width="24" height="25" viewBox="0 0 24 25" fill="none" xmlns="http://www.w3.org/2000/svg">
<path fill-rule="evenodd" clip-rule="evenodd" d="M15 9.5C15 11.1569 13.6569 12.5 12 12.5C10.3431 12.5 9 11.1569 9 9.5C9 7.84315 10.3431 6.5 12 6.5C13.6569 6.5 15 7.84315 15 9.5ZM14 9.5C14 10.6046 13.1046 11.5 12 11.5C10.8954 11.5 10 10.6046 10 9.5C10 8.39543 10.8954 7.5 12 7.5C13.1046 7.5 14 8.39543 14 9.5Z" fill="white"/>
<path d="M18 13.5C19.1046 13.5 20 12.6046 20 11.5C20 10.3954 19.1046 9.5 18 9.5C16.8954 9.5 16 10.3954 16 11.5C16 12.6046 16.8954 13.5 18 13.5Z" fill="white"/>
<path fill-rule="evenodd" clip-rule="evenodd" d="M16.899 17.5C16.8353 17.1881 16.7418 16.8821 16.6194 16.5866C16.3681 15.98 15.9998 15.4288 15.5355 14.9645C15.0712 14.5002 14.52 14.1319 13.9134 13.8806C13.3068 13.6293 12.6566 13.5 12 13.5C11.3434 13.5 10.6932 13.6293 10.0866 13.8806C9.47995 14.1319 8.92876 14.5002 8.46447 14.9645C8.00017 15.4288 7.63188 15.98 7.3806 16.5866C7.25818 16.8821 7.1647 17.1881 7.10102 17.5C7.03401 17.8283 7 18.1633 7 18.5H17C17 18.1633 16.966 17.8283 16.899 17.5ZM15.873 17.5C15.8264 17.3196 15.7671 17.1422 15.6955 16.9693C15.4945 16.484 15.1999 16.043 14.8284 15.6716C14.457 15.3001 14.016 15.0055 13.5307 14.8045C13.0454 14.6035 12.5253 14.5 12 14.5C11.4747 14.5 10.9546 14.6035 10.4693 14.8045C9.98396 15.0055 9.54301 15.3001 9.17157 15.6716C8.80014 16.043 8.5055 16.484 8.30448 16.9693C8.23285 17.1422 8.17361 17.3196 8.12702 17.5H15.873Z" fill="white"/>
<path d="M6.25 14.5078C6.16701 14.5026 6.08364 14.5 6 14.5C4.93913 14.5 3.92172 14.9214 3.17157 15.6716C2.42143 16.4217 2 17.4391 2 18.5H5C5 17.5807 5.18106 16.6705 5.53284 15.8212C5.72474 15.3579 5.96539 14.9178 6.25 14.5078Z" fill="white"/>
<path d="M19 18.5H22C22 17.4391 21.5786 16.4217 20.8284 15.6716C20.0783 14.9214 19.0609 14.5 18 14.5C17.9164 14.5 17.833 14.5026 17.75 14.5078C18.0346 14.9178 18.2753 15.3579 18.4672 15.8212C18.8189 16.6705 19 17.5807 19 18.5Z" fill="white"/>
<path d="M8 11.5C8 12.6046 7.10457 13.5 6 13.5C4.89543 13.5 4 12.6046 4 11.5C4 10.3954 4.89543 9.5 6 9.5C7.10457 9.5 8 10.3954 8 11.5Z" fill="white"/>
</svg>
