<svg width="20" height="21" viewBox="0 0 20 21" fill="none" xmlns="http://www.w3.org/2000/svg">
<path d="M8.57 9.46C8.62 9.16 8.72 8.9 8.84 8.67C8.96 8.44 9.15 8.25 9.38 8.11C9.6 7.97 9.87 7.91 10.21 7.9C10.42 7.91 10.61 7.95 10.78 8.02C10.96 8.1 11.13 8.21 11.25 8.35C11.38 8.49 11.48 8.65 11.56 8.83C11.64 9.01 11.68 9.21 11.69 9.41H13.32C13.3 8.98 13.22 8.59 13.06 8.23C12.91 7.87 12.7 7.56 12.42 7.31C12.14 7.06 11.82 6.85 11.44 6.71C11.07 6.56 10.65 6.5 10.18 6.5C9.59 6.5 9.07 6.6 8.63 6.81C8.19 7.02 7.83 7.29 7.54 7.65C7.25 8 7.03 8.41 6.89 8.89C6.75 9.37 6.67 9.86 6.67 10.38V10.63C6.67 11.16 6.74 11.65 6.88 12.12C7.02 12.59 7.24 13 7.53 13.35C7.82 13.7 8.19 13.98 8.62 14.18C9.06 14.38 9.58 14.49 10.17 14.49C10.6 14.49 11 14.42 11.37 14.28C11.74 14.14 12.07 13.95 12.35 13.71C12.63 13.46 12.86 13.18 13.02 12.85C13.18 12.52 13.28 12.18 13.29 11.8H11.66C11.65 11.99 11.61 12.16 11.52 12.33C11.43 12.5 11.33 12.63 11.19 12.75C11.05 12.87 10.9 12.96 10.72 13.02C10.55 13.08 10.36 13.1 10.17 13.11C9.84 13.1 9.57 13.04 9.36 12.9C9.13 12.75 8.95 12.56 8.82 12.34C8.69 12.11 8.59 11.84 8.55 11.54C8.51 11.24 8.48 10.93 8.48 10.63V10.38C8.5 10.06 8.52 9.76 8.57 9.46ZM10 1.5C14.96 1.5 19 5.54 19 10.5C19 15.46 14.96 19.5 10 19.5C5.04 19.5 1 15.46 1 10.5C1 5.54 5.04 1.5 10 1.5ZM10 0.5C4.48 0.5 0 4.98 0 10.5C0 16.02 4.48 20.5 10 20.5C15.52 20.5 20 16.02 20 10.5C20 4.98 15.52 0.5 10 0.5Z" fill="white"/>
</svg>
