<svg width="20" height="21" viewBox="0 0 20 21" fill="none" xmlns="http://www.w3.org/2000/svg">
<path d="M10 7.5C11.65 7.5 13 8.85 13 10.5C13 12.15 11.65 13.5 10 13.5C8.35003 13.5 7.00003 12.15 7.00003 10.5C7.00003 8.85 8.35003 7.5 10 7.5ZM10 6.5C7.79003 6.5 6.00003 8.29 6.00003 10.5C6.00003 12.71 7.79003 14.5 10 14.5C12.21 14.5 14 12.71 14 10.5C14 8.29 12.21 6.5 10 6.5ZM11.22 1.5L11.77 3.7L11.9 4.21L12.4 4.39C13.01 4.62 13.59 4.95 14.12 5.37L14.52 5.69L15.02 5.55L17.19 4.93L18.41 7.04L16.78 8.63L16.41 8.99L16.49 9.5C16.54 9.82 16.57 10.14 16.57 10.48C16.57 10.82 16.54 11.14 16.49 11.46L16.41 11.97L16.78 12.33L18.41 13.92L17.19 16.03L15.02 15.41L14.52 15.27L14.12 15.59C13.59 16.02 13.01 16.35 12.4 16.57L11.9 16.75L11.77 17.26L11.22 19.5H8.78003L8.23003 17.3L8.10003 16.79L7.60003 16.61C7.00003 16.38 6.42003 16.05 5.88003 15.62L5.48003 15.3L4.98003 15.44L2.81003 16.06L1.60003 13.94L3.23003 12.35L3.60003 11.99L3.52003 11.48C3.47003 11.16 3.44003 10.83 3.44003 10.5C3.44003 10.17 3.47003 9.84 3.52003 9.52L3.60003 9.01L3.23003 8.65L1.60003 7.06L2.82003 4.95L4.99003 5.57L5.49003 5.71L5.89003 5.39C6.42003 4.95 7.00003 4.62 7.61003 4.4L8.11003 4.22L8.24003 3.71L8.78003 1.5H11.22ZM12 0.5H8.00003L7.26003 3.46C6.53003 3.73 5.86003 4.12 5.26003 4.6L2.34003 3.77L0.340027 7.23L2.53003 9.36C2.47003 9.73 2.44003 10.11 2.44003 10.5C2.44003 10.89 2.47003 11.27 2.53003 11.64L0.340027 13.77L2.34003 17.23L5.26003 16.4C5.86003 16.88 6.53003 17.27 7.26003 17.54L8.00003 20.5H12L12.74 17.54C13.47 17.27 14.14 16.88 14.74 16.4L17.66 17.23L19.66 13.77L17.47 11.64C17.53 11.27 17.56 10.89 17.56 10.5C17.56 10.11 17.53 9.73 17.47 9.36L19.66 7.23L17.66 3.77L14.74 4.6C14.14 4.12 13.47 3.73 12.74 3.46L12 0.5Z" fill="white"/>
</svg>
