<svg width="10" height="13" viewBox="0 0 10 13" fill="none" xmlns="http://www.w3.org/2000/svg">
<path d="M6.65626 2.125C6.42501 2.125 6.18751 2.1875 5.97501 2.31875L2.65626 4.2875C2.15001 4.58125 1.85001 5.18125 1.87501 5.8125C1.90626 6.4375 2.23751 6.98125 2.74376 7.2375C2.75626 7.24375 3.21251 7.45625 3.21251 7.45625L2.65001 7.7875C1.93751 8.2125 1.66251 9.20625 2.03751 10.0062C2.30626 10.5562 2.81251 10.875 3.34376 10.875C3.57501 10.875 3.80626 10.8125 4.02501 10.6812L7.34376 8.7125C7.84376 8.4125 8.15001 7.81875 8.11876 7.18125C8.09376 6.5625 7.75626 6.0125 7.25001 5.7625C7.23751 5.75625 6.78126 5.54375 6.78126 5.54375L7.34376 5.2125C8.05626 4.7875 8.33126 3.79375 7.95001 2.99375C7.69376 2.44375 7.18126 2.125 6.65626 2.125Z" fill="#FF0033"/>
</svg>
