<svg width="19" height="19" viewBox="0 0 19 19" fill="none" xmlns="http://www.w3.org/2000/svg">
<path d="M18.47 17.67L12.88 12.08C13.95 10.85 14.6 9.25 14.6 7.5C14.6 3.63 11.47 0.5 7.60001 0.5C3.73001 0.5 0.600006 3.63 0.600006 7.5C0.600006 11.37 3.73001 14.5 7.60001 14.5C9.35001 14.5 10.95 13.85 12.18 12.79L17.77 18.38L18.47 17.67ZM7.60001 13.5C4.29001 13.5 1.60001 10.81 1.60001 7.5C1.60001 4.19 4.29001 1.5 7.60001 1.5C10.91 1.5 13.6 4.19 13.6 7.5C13.6 10.81 10.91 13.5 7.60001 13.5Z" fill="white"/>
</svg>
